 http://img854.imageshack.us/img854/9005/doomsday2008.jpg

Country.......: USA, United Kingdom, Germany, South Africa
Genre.........: Action, Sci-Fi, Thriller
Date release..: 18.03.2008 [World]
Director......: Neil Marshall
Writers.......: Neil Marshall
Duration......: 108 min.
More..........: http://www.imdb.com/title/tt0483607
Trailer.......: http://www.imdb.com/video/imdb/vi1269956889
Trailer.......:

Pilot :
A futuristic action thriller where a team of people work to prevent a disaster threatening the future of the human race.

Cats :
Caryn Peterson   	 ...  	Vagrant Girl
Adeola Ariyo 	... 	Nurse
Emma Cleasby 	... 	Katherine Sinclair
Christine Tomlinson 	... 	Young Eden Sinclair
Vernon Willemse 	... 	David / Gimp
Paul Hyett 	... 	Hot Dog Victim
Daniel Read 	... 	Sergeant #1
Karl Thaning 	... 	Pilot
Stephen Hughes 	... 	Soldier #1 / Johnson
Jason Cope 	... 	Wall Guard
Ryan Kruger 	... 	Soldier
Nathan Wheatley 	... 	Patient 'X'
Cecil Carter 	... 	DDS Assault Trooper
Jeremy Crutchley 	... 	Richter
Rhona Mitra 	... 	Eden Sinclair 

Data Technical :
!!! SAMPLE !!!
Audio.....: Lector Polish
Subtitles.: None
Format                           : AVI
Format/Info                      : Audio Video Interleave
File size                        : 700 MiB
Duration                         : 1h 48mn
Overall bit rate                 : 904 Kbps
Writing application              : VirtualDubMod 1.5.10.2 (build 2540/release)
Writing library                  : VirtualDubMod build 2540/release
Video
ID                               : 0
Format                           : MPEG-4 Visual
Format profile                   : Advanced Simple@L5
Format settings, BVOP            : Yes
Format settings, QPel            : No
Format settings, GMC             : No warppoints
Format settings, Matrix          : Default (H.263)
Codec ID                         : XVID
Codec ID/Hint                    : XviD
Duration                         : 1h 48mn
Bit rate                         : 778 Kbps
Width                            : 640 pixels
Height                           : 272 pixels
Display aspect ratio             : 2.35:1
Frame rate                       : 25.000 fps
Color space                      : YUV
Chroma subsampling               : 4:2:0
Bit depth                        : 8 bits
Scan type                        : Progressive
Bits/(Pixel*Frame)               : 0.179
Stream size                      : 602 MiB (86%)
Writing library                  : XviD 1.1.2 (UTC 2006-11-01)
Audio
ID                               : 1
Format                           : MPEG Audio
Format version                   : Version 1
Format profile                   : Layer 3
Mode                             : Joint stereo
Mode extension                   : MS Stereo
Codec ID                         : 55
Codec ID/Hint                    : MP3
Duration                         : 1h 48mn
Bit rate mode                    : Variable
Bit rate                         : 117 Kbps
Channel(s)                       : 2 channels
Sampling rate                    : 48.0 KHz
Stream size                      : 87.4 MiB (12%)
Alignment                        : Aligned on interleaves
Interleave, duration             : 24 ms (0.60 video frame)
Interleave, preload duration     : 163 ms
Writing library                  : LAME3.97b
Encoding settings                : -m j -V 4 -q 3 -lowpass 15.6 --abr 117

Screen : 
http://img641.imageshack.us/img641/512/doomsday2008s5.jpg 
http://img854.imageshack.us/img854/5157/doomsday2008s1.jpg 
http://img820.imageshack.us/img820/3871/doomsday2008s2.jpg 
http://img825.imageshack.us/img825/4764/doomsday2008s3.jpg 
http://img860.imageshack.us/img860/5745/doomsday2008s4.jpg